# xmcd
#
# Track frame offsets:
# 150
# 20976
# 33656
# 43992
# 53164
# 68050
# 77698
# 87642
# 97503
# 106764
# 122018
# 134127
# 152510
# 163841
# 173798
# 188213
#
# Disc length: 2696 seconds
#
#
# Revision: 0
# Processed by: cddbd v1.5.2PL0 Copyright (c) Steve Scherf et al.
# Submitted via: FreeRIP 2.96 
#
DISCID=d80a8610
DTITLE=deutsches country gold
DYEAR=1900
DGENRE=Country
TTITLE0=gunter gabriel - er ist ein kerl
TTITLE1=jonny hill - kann liebe alles verzeihn (some broken hearts)
TTITLE2=freddy quinn - die schönste frau von texas
TTITLE3=mary roos - 7000 rinder
TTITLE4=dave duddley - deutschland autobahn
TTITLE5=martin lauer - die letzte rose der prärie
TTITLE6=ralph paulsen - bonanza
TTITLE7=dieter thomas heck - das wilde leben im wilden westen
TTITLE8=bill ramsey - der tramp
TTITLE9=new mavericks - auf eigene faust
TTITLE10=marion maerz - wer liebe sucht (stand by your man)
TTITLE11=sven jenssen - trucker und sailor
TTITLE12=boy cliff and colorado singers - hilly billy picadilly
TTITLE13=sixtons - blue river
TTITLE14=tina wulf - koffer voller träume
TTITLE15=charles parker - winnetou melodie
EXTD=
EXTT0=
EXTT1=
EXTT2=
EXTT3=
EXTT4=
EXTT5=
EXTT6=
EXTT7=
EXTT8=
EXTT9=
EXTT10=
EXTT11=
EXTT12=
EXTT13=
EXTT14=
EXTT15=
PLAYORDER=
